<svg version="1.1" id="Layer_1" xmlns="http://www.w3.org/2000/svg" xmlns:xlink="http://www.w3.org/1999/xlink" x="0px" y="0px" width="16px" height="16px" viewBox="0 0 16 16" enable-background="new 0 0 16 16" xml:space="preserve">
  <g id="icon">
    <path d="M15.904,7.878l-4.083,-2.239c-0.096,-0.06,-0.221,0.009,-0.221,0.122l0.555,1.242c-0.015,-0.001,-0.031,-0.002,-0.046,-0.002H6.213c0.021,-0.02,0.042,-0.04,0.062,-0.061l3.418,-3.418l0.481,1.258c0.08,0.08,0.217,0.041,0.243,-0.07L11.72,0.239c0.024,-0.104,-0.069,-0.197,-0.173,-0.173L7.076,1.369c-0.111,0.026,-0.15,0.163,-0.07,0.243l1.27,0.486l0.005,0.005L4.861,5.525C4.073,6.313,3.069,6.842,1.983,7H0.492C0.22,7,0,7.22,0,7.492v1.017C0,8.78,0.22,9,0.492,9h1.506c1.119,0.142,2.155,0.678,2.963,1.487l3.422,3.422l-0.005,0.005L7.107,14.4c-0.08,0.08,-0.041,0.217,0.07,0.243l4.471,1.304c0.104,0.024,0.197,-0.069,0.173,-0.173l-1.304,-4.471c-0.026,-0.111,-0.163,-0.15,-0.243,-0.07l-0.481,1.258L6.375,9.073C6.35,9.048,6.325,9.024,6.3,9h5.808c0.016,0,0.031,-0.001,0.046,-0.002L11.6,10.239c0,0.113,0.125,0.183,0.221,0.122l4.083,-2.239C15.995,8.066,15.995,7.934,15.904,7.878z" fill="#797979"/>
  </g>
</svg>